<?xml version="1.0" encoding="UTF-8" standalone="no"?>
<!-- Created with Inkscape (http://www.inkscape.org/) -->

<svg
   width="76.129776mm"
   height="28.23731mm"
   viewBox="0 0 76.129776 28.23731"
   version="1.1"
   id="svg1"
   xml:space="preserve"
   inkscape:version="1.3.2 (091e20e, 2023-11-25, custom)"
   sodipodi:docname="drawing-1.svg"
   xmlns:inkscape="http://www.inkscape.org/namespaces/inkscape"
   xmlns:sodipodi="http://sodipodi.sourceforge.net/DTD/sodipodi-0.dtd"
   xmlns="http://www.w3.org/2000/svg"
   xmlns:svg="http://www.w3.org/2000/svg"><sodipodi:namedview
     id="namedview1"
     pagecolor="#ffffff"
     bordercolor="#000000"
     borderopacity="0.25"
     inkscape:showpageshadow="2"
     inkscape:pageopacity="0.0"
     inkscape:pagecheckerboard="0"
     inkscape:deskcolor="#d1d1d1"
     inkscape:document-units="mm"
     inkscape:zoom="2"
     inkscape:cx="457.5"
     inkscape:cy="864.25"
     inkscape:window-width="1920"
     inkscape:window-height="991"
     inkscape:window-x="-9"
     inkscape:window-y="-9"
     inkscape:window-maximized="1"
     inkscape:current-layer="layer1" /><defs
     id="defs1" /><g
     inkscape:label="Layer 1"
     inkscape:groupmode="layer"
     id="layer1"
     transform="translate(-93.065417,-220.89973)"><path
       style="font-weight:bold;font-size:19.6408px;line-height:1.3;font-family:Lexend;-inkscape-font-specification:'Lexend Bold';text-align:center;letter-spacing:0px;text-anchor:middle;fill:#2ac3b7;fill-opacity:1;stroke-width:11.048;stroke-linecap:square"
       d="m 100.95717,249.13702 c -1.021315,0 -1.924785,-0.16367 -2.710425,-0.49102 -0.77253,-0.32735 -1.38795,-0.76599 -1.84623,-1.31593 l 1.90516,-1.64983 c 0.40591,0.40591 0.86419,0.70707 1.37485,0.90348 0.510655,0.18331 0.995135,0.27497 1.453415,0.27497 0.18332,0 0.34699,-0.0196 0.49102,-0.0589 0.14403,-0.0393 0.26188,-0.0916 0.35354,-0.15712 0.10475,-0.0786 0.18331,-0.16368 0.23569,-0.25533 0.0524,-0.10475 0.0786,-0.2226 0.0786,-0.35354 0,-0.26187 -0.11785,-0.46483 -0.35354,-0.60886 -0.11784,-0.0655 -0.31425,-0.14403 -0.58922,-0.23569 -0.27497,-0.0917 -0.62851,-0.19641 -1.06061,-0.31425 -0.615405,-0.15713 -1.152255,-0.34044 -1.610535,-0.54995 -0.44519,-0.22259 -0.81182,-0.47792 -1.09989,-0.76599 -0.26187,-0.27497 -0.46483,-0.57612 -0.60886,-0.90347 -0.14403,-0.34045 -0.21605,-0.72017 -0.21605,-1.13917 0,-0.48447 0.1113,-0.92312 0.33389,-1.31593 0.23569,-0.39282 0.5434,-0.73326 0.92312,-1.02133 0.39282,-0.28806 0.83801,-0.50411 1.33558,-0.64814 0.51066,-0.15713 1.034405,-0.23569 1.571255,-0.23569 0.57613,0 1.12607,0.0655 1.64983,0.19641 0.52375,0.13093 1.00823,0.31425 1.45342,0.54994 0.45828,0.23569 0.86419,0.5172 1.21773,0.84455 l -1.64987,1.84624 c -0.23569,-0.2226 -0.50411,-0.41901 -0.80527,-0.58923 -0.28807,-0.18331 -0.58923,-0.32734 -0.90348,-0.43209 -0.31425,-0.10475 -0.60232,-0.15713 -0.8642,-0.15713 -0.1964,0 -0.37317,0.0196 -0.5303,0.0589 -0.14403,0.0262 -0.26842,0.0786 -0.37317,0.15713 -0.10475,0.0655 -0.183315,0.15058 -0.235685,0.25533 -0.0524,0.0916 -0.0786,0.20295 -0.0786,0.33389 0,0.13094 0.0327,0.25533 0.0982,0.37318 0.0786,0.11784 0.183305,0.21604 0.314245,0.29461 0.13094,0.0786 0.34044,0.17022 0.62851,0.27497 0.28806,0.0917 0.68088,0.20951 1.17844,0.35354 0.61542,0.17022 1.14572,0.36008 1.59091,0.56958 0.44519,0.2095 0.79873,0.45828 1.0606,0.74635 0.2095,0.22259 0.36663,0.48447 0.47138,0.78563 0.10475,0.28807 0.15713,0.60232 0.15713,0.94276 0,0.66779 -0.18986,1.26356 -0.56959,1.78731 -0.36662,0.51066 -0.87728,0.91657 -1.53198,1.21773 -0.65469,0.28807 -1.40104,0.4321 -2.23905,0.4321 z m 11.11671,0 c -1.08679,0 -2.05573,-0.23569 -2.90683,-0.70707 -0.83801,-0.47138 -1.5058,-1.11298 -2.00337,-1.9248 -0.48447,-0.81182 -0.72671,-1.74148 -0.72671,-2.78899 0,-1.04751 0.24224,-1.97718 0.72671,-2.789 0.49757,-0.81181 1.16536,-1.45341 2.00337,-1.92479 0.8511,-0.47138 1.82004,-0.70707 2.90683,-0.70707 1.0868,0 2.04919,0.23569 2.8872,0.70707 0.8511,0.47138 1.51889,1.11298 2.00336,1.92479 0.48448,0.81182 0.72671,1.74149 0.72671,2.789 0,1.04751 -0.24223,1.97717 -0.72671,2.78899 -0.48447,0.81182 -1.15226,1.45342 -2.00336,1.9248 -0.83801,0.47138 -1.8004,0.70707 -2.8872,0.70707 z m 0,-2.71043 c 0.47138,0 0.89039,-0.11785 1.25702,-0.35354 0.36662,-0.23569 0.65469,-0.55648 0.86419,-0.96239 0.2095,-0.40591 0.30771,-0.87075 0.29461,-1.3945 0.0131,-0.52375 -0.0851,-0.98859 -0.29461,-1.3945 -0.2095,-0.419 -0.49757,-0.74635 -0.86419,-0.98204 -0.36663,-0.23569 -0.78564,-0.35353 -1.25702,-0.35353 -0.47137,0 -0.89693,0.11784 -1.27665,0.35353 -0.36663,0.23569 -0.65469,0.56304 -0.86419,0.98204 -0.2095,0.40591 -0.30771,0.87075 -0.29461,1.3945 -0.0131,0.52375 0.0851,0.98859 0.29461,1.3945 0.2095,0.40591 0.49756,0.7267 0.86419,0.96239 0.37972,0.23569 0.80528,0.35354 1.27665,0.35354 z m 7.67957,2.51402 v -10.42926 h 2.98541 l 0.13748,3.39785 -0.58922,-0.64814 c 0.15712,-0.56304 0.41245,-1.06715 0.76599,-1.51234 0.36663,-0.44519 0.79218,-0.79873 1.27665,-1.06061 0.48447,-0.26187 1.00168,-0.39281 1.55162,-0.39281 0.23569,0 0.45174,0.0196 0.64815,0.0589 0.2095,0.0393 0.39936,0.0851 0.56958,0.13749 l -0.86419,3.47642 c -0.14403,-0.0917 -0.34044,-0.16368 -0.58923,-0.21605 -0.23569,-0.0655 -0.48447,-0.0982 -0.74635,-0.0982 -0.28806,0 -0.55649,0.0524 -0.80527,0.15713 -0.24878,0.0917 -0.45828,0.22915 -0.6285,0.41246 -0.17023,0.18331 -0.30771,0.39936 -0.41246,0.64814 -0.0917,0.24879 -0.13749,0.53031 -0.13749,0.84456 v 5.22445 z m 12.35408,0.17677 c -0.87729,0 -1.66292,-0.22914 -2.3569,-0.68743 -0.68088,-0.47138 -1.22428,-1.11298 -1.63019,-1.9248 -0.40591,-0.82491 -0.60886,-1.75458 -0.60886,-2.78899 0,-1.06061 0.20295,-1.99682 0.60886,-2.80864 0.40591,-0.81182 0.9624,-1.44687 1.66947,-1.90515 0.70707,-0.47138 1.51234,-0.70707 2.41582,-0.70707 0.49757,0 0.94931,0.072 1.35522,0.21605 0.419,0.14403 0.78563,0.34698 1.09988,0.60886 0.31425,0.24879 0.58268,0.5434 0.80527,0.88384 0.2226,0.32735 0.38627,0.68088 0.49102,1.0606 l -0.64814,-0.0786 v -2.47474 h 3.12288 v 10.42926 h -3.1818 v -2.51402 l 0.70706,-0.0196 c -0.10475,0.36663 -0.27497,0.71361 -0.51066,1.04096 -0.23569,0.32735 -0.52375,0.61541 -0.86419,0.8642 -0.34044,0.24878 -0.72016,0.44519 -1.13917,0.58922 -0.419,0.14403 -0.86419,0.21605 -1.33557,0.21605 z m 0.86419,-2.65151 c 0.48448,0 0.90348,-0.1113 1.25701,-0.33389 0.35354,-0.2226 0.62851,-0.53685 0.82492,-0.94276 0.19641,-0.41901 0.29461,-0.91003 0.29461,-1.47306 0,-0.56304 -0.0982,-1.04751 -0.29461,-1.45342 -0.19641,-0.41901 -0.47138,-0.73981 -0.82492,-0.9624 -0.35353,-0.23569 -0.77253,-0.35353 -1.25701,-0.35353 -0.47138,0 -0.88383,0.11784 -1.23737,0.35353 -0.34044,0.22259 -0.60886,0.54339 -0.80527,0.9624 -0.19641,0.40591 -0.29461,0.89038 -0.29461,1.45342 0,0.56303 0.0982,1.05405 0.29461,1.47306 0.19641,0.40591 0.46483,0.72016 0.80527,0.94276 0.35354,0.22259 0.76599,0.33389 1.23737,0.33389 z"
       id="text1"
       aria-label="sora medika "
       sodipodi:nodetypes="sccccssccscsccccscccssccccsscccscsccsccsccsssccsccscssscssssccsscccscsccccccssccccscscsccsccsscscccccccccccsssssscsccsccsccs"
       inkscape:export-filename="text1.png"
       inkscape:export-xdpi="96"
       inkscape:export-ydpi="96" /><path
       style="font-weight:bold;font-size:19.6408px;line-height:1.3;font-family:Lexend;-inkscape-font-specification:'Lexend Bold';text-align:center;letter-spacing:0px;text-anchor:middle;fill:#012754;fill-opacity:1;stroke-width:11.048;stroke-linecap:square"
       d="m 121.50733,236.82846 c -1.15226,0 -2.15394,-0.22914 -3.00504,-0.68743 -0.8511,-0.47138 -1.51234,-1.10643 -1.98372,-1.90516 -0.47138,-0.81182 -0.70707,-1.73494 -0.70707,-2.76935 0,-0.79873 0.13094,-1.53198 0.39282,-2.19977 0.26187,-0.66779 0.6285,-1.24392 1.09988,-1.72839 0.47138,-0.49757 1.02787,-0.87729 1.66947,-1.13917 0.65469,-0.27497 1.36831,-0.41245 2.14085,-0.41245 0.73325,0 1.40104,0.13094 2.00336,0.39281 0.61541,0.26188 1.14571,0.62851 1.5909,1.09989 0.44519,0.47138 0.78563,1.02787 1.02132,1.66947 0.23569,0.6416 0.34045,1.34212 0.31426,2.10156 l -0.0196,0.84456 h -8.30806 l -0.45174,-1.76768 h 6.20649 l -0.33389,0.37318 v -0.39282 c -0.0262,-0.32735 -0.13095,-0.61541 -0.31425,-0.86419 -0.17022,-0.26188 -0.39936,-0.46484 -0.68743,-0.60887 -0.28807,-0.14403 -0.61541,-0.21605 -0.98204,-0.21605 -0.51066,0 -0.94931,0.10475 -1.31594,0.31426 -0.35353,0.19641 -0.62196,0.49102 -0.80527,0.88383 -0.18331,0.37973 -0.27497,0.85111 -0.27497,1.41414 0,0.57613 0.11784,1.08025 0.35353,1.51234 0.24879,0.41901 0.60232,0.74635 1.06061,0.98204 0.47138,0.23569 1.02787,0.35354 1.66947,0.35354 0.44519,0 0.838,-0.0655 1.17844,-0.19641 0.35354,-0.13094 0.73326,-0.35354 1.13917,-0.66779 l 1.47306,2.08193 c -0.40591,0.35353 -0.838,0.6416 -1.29629,0.86419 -0.45829,0.2226 -0.92967,0.38627 -1.41414,0.49102 -0.47138,0.11785 -0.94276,0.17677 -1.41414,0.17677 z m 10.48819,0.0196 c -0.90347,0 -1.70874,-0.22914 -2.41581,-0.68743 -0.69398,-0.47138 -1.24392,-1.11298 -1.64983,-1.9248 -0.40591,-0.82491 -0.60887,-1.76112 -0.60887,-2.80863 0,-1.04751 0.20296,-1.97717 0.60887,-2.78899 0.40591,-0.82491 0.9624,-1.47306 1.66947,-1.94444 0.70707,-0.47138 1.51889,-0.70707 2.43546,-0.70707 0.47138,0 0.92312,0.072 1.35521,0.21605 0.4321,0.14403 0.82492,0.34043 1.17845,0.58922 0.35353,0.24879 0.6416,0.53685 0.86419,0.8642 0.2226,0.31425 0.35354,0.64159 0.39282,0.98204 l -0.74635,0.17676 v -6.71715 h 3.16217 v 14.53419 h -2.92648 l -0.17677,-2.37654 0.62851,0.0982 c -0.0393,0.32735 -0.17021,0.6416 -0.39282,0.94276 -0.2095,0.30116 -0.48447,0.56958 -0.82491,0.80527 -0.34044,0.22259 -0.73326,0.39936 -1.17845,0.5303 -0.4321,0.14403 -0.89039,0.21605 -1.37486,0.21605 z m 0.80528,-2.61223 c 0.48447,0 0.90348,-0.11784 1.25701,-0.35353 0.35353,-0.23569 0.62196,-0.56304 0.80527,-0.98204 0.19641,-0.41901 0.29461,-0.91003 0.29461,-1.47306 0,-0.57613 -0.0982,-1.0737 -0.29461,-1.4927 -0.18331,-0.41901 -0.45174,-0.74635 -0.80527,-0.98204 -0.35353,-0.23569 -0.77254,-0.35354 -1.25701,-0.35354 -0.48447,0 -0.90348,0.11785 -1.25701,0.35354 -0.34044,0.23569 -0.60887,0.56303 -0.80528,0.98204 -0.19641,0.419 -0.29461,0.91657 -0.29461,1.4927 0,0.56303 0.0982,1.05405 0.29461,1.47306 0.19641,0.419 0.46484,0.74635 0.80528,0.98204 0.35353,0.23569 0.77254,0.35353 1.25701,0.35353 z m 8.26876,2.39618 v -10.42926 h 3.14253 v 10.42926 z m 1.57126,-12.49155 c -0.58922,0 -1.05405,-0.13748 -1.39449,-0.41245 -0.32735,-0.28807 -0.49102,-0.69398 -0.49102,-1.21773 0,-0.47138 0.17022,-0.85765 0.51066,-1.15881 0.34044,-0.30116 0.79872,-0.45174 1.37485,-0.45174 0.58923,0 1.04751,0.14403 1.37486,0.4321 0.32735,0.27497 0.49102,0.66778 0.49102,1.17845 0,0.48447 -0.17022,0.87729 -0.51066,1.17844 -0.32735,0.30116 -0.77909,0.45174 -1.35522,0.45174 z m 7.54208,9.42759 -1.15881,-2.3569 4.87092,-5.0084 h 4.14421 z m -3.02469,3.06396 v -14.53419 h 3.14253 v 14.53419 z m 7.07069,0 -3.67283,-4.75307 2.21941,-1.72839 5.16553,6.48146 z m 8.64195,0.17677 c -0.87729,0 -1.66292,-0.22914 -2.35689,-0.68743 -0.68088,-0.47138 -1.22428,-1.11298 -1.63019,-1.9248 -0.40591,-0.82491 -0.60886,-1.75458 -0.60886,-2.78899 0,-1.06061 0.20295,-1.99682 0.60886,-2.80864 0.40591,-0.81182 0.9624,-1.44687 1.66947,-1.90515 0.70707,-0.47138 1.51234,-0.70707 2.41582,-0.70707 0.49757,0 0.9493,0.072 1.35521,0.21605 0.41901,0.14403 0.78564,0.34698 1.09989,0.60886 0.31425,0.24879 0.58268,0.5434 0.80527,0.88384 0.22259,0.32735 0.38627,0.68088 0.49102,1.0606 l -0.64815,-0.0786 v -2.47474 h 3.12289 v 10.42926 h -3.18181 v -2.51402 l 0.70707,-0.0196 c -0.10475,0.36663 -0.27497,0.71361 -0.51066,1.04096 -0.23569,0.32735 -0.52375,0.61541 -0.86419,0.8642 -0.34045,0.24878 -0.72017,0.44519 -1.13917,0.58922 -0.41901,0.14403 -0.8642,0.21605 -1.33558,0.21605 z m 0.8642,-2.65151 c 0.48447,0 0.90348,-0.1113 1.25701,-0.33389 0.35353,-0.2226 0.6285,-0.53685 0.82491,-0.94276 0.19641,-0.41901 0.29462,-0.91003 0.29462,-1.47306 0,-0.56304 -0.0982,-1.04751 -0.29462,-1.45342 -0.19641,-0.41901 -0.47138,-0.73981 -0.82491,-0.9624 -0.35353,-0.23569 -0.77254,-0.35353 -1.25701,-0.35353 -0.47138,0 -0.88384,0.11784 -1.23737,0.35353 -0.34044,0.22259 -0.60886,0.54339 -0.80527,0.9624 -0.19641,0.40591 -0.29462,0.89038 -0.29462,1.45342 0,0.56303 0.0982,1.05405 0.29462,1.47306 0.19641,0.40591 0.46483,0.72016 0.80527,0.94276 0.35353,0.22259 0.76599,0.33389 1.23737,0.33389 z"
       id="path2"
       aria-label="sora medika "
       sodipodi:nodetypes="sccssccscssccccccccssccsccscccscsssccscssssccccccccccccsssscscsscssscscccccscssscscscccccccccccccccsccsscscccccccccccsssssscsccsccsccs" /><g
       id="g12"
       transform="translate(14.780005,14.405827)"
       style="fill:#012754;fill-opacity:1"><g
         id="g8"
         transform="translate(17.634336,-1.4925175)"
         style="fill:#012754;fill-opacity:1"><g
           id="g9"
           transform="translate(-8.1359375,2.0505209)"
           style="fill:#012754;fill-opacity:1"><path
             id="rect1"
             style="fill:#2ac3b7;fill-opacity:1;stroke-width:11.8439;stroke-linecap:square"
             d="m 73.080294,206.58894 v 4.29328 h -4.293278 v 3.17345 h 4.119128 c 0.200391,-1.05513 0.650486,-1.83441 1.273307,-2.37763 0.578693,-0.50475 1.294435,-0.8024 2.074292,-0.97255 v -4.11655 z"
             sodipodi:nodetypes="cccccsccc" /><path
             id="path3"
             style="font-weight:bold;font-size:19.6408px;line-height:1.3;font-family:Lexend;-inkscape-font-specification:'Lexend Bold';text-align:center;letter-spacing:0px;text-anchor:middle;fill:#012754;fill-opacity:1;stroke:none;stroke-width:0.264583;stroke-linecap:round;stroke-linejoin:miter;stroke-miterlimit:3.9;stroke-dasharray:none"
             d="m 76.740269,210.88232 c -1.843208,0.28592 -3.313396,1.186 -3.626136,3.54501 l -0.01809,3.92172 h 3.146061 v -2.79311 c 0,-0.675 0.373252,-1.44545 1.257288,-1.50017 h 2.033799 l 0.0052,-3.175 c -0.0017,-6.1e-4 -1.952318,0.002 -2.79809,0.002 z"
             sodipodi:nodetypes="ccccsccccc" /></g></g><path
         id="path9"
         style="font-weight:bold;font-size:19.6408px;line-height:1.3;font-family:Lexend;-inkscape-font-specification:'Lexend Bold';text-align:center;letter-spacing:0px;text-anchor:middle;fill:#012754;fill-opacity:1;stroke-width:11.048;stroke-linecap:square"
         d="m 89.265352,211.43868 0.02721,3.17499 c 0.477574,0.0824 0.682083,0.22341 0.844535,0.6657 0.117847,0.27497 0.118856,0.64226 0.118856,1.03507 v 6.12779 h 3.16208 v -6.20634 c 0,-0.26188 0.0458,-0.49795 0.13746,-0.70745 0.09166,-0.2095 0.215977,-0.3927 0.373104,-0.54983 0.170219,-0.15713 0.366515,-0.28141 0.589111,-0.37311 0.235689,-0.0917 0.491391,-0.13746 0.766361,-0.13746 0.340441,0 0.621804,0.072 0.844393,0.21601 0.23569,0.13093 0.412351,0.33378 0.530201,0.60875 0.117859,0.27497 0.176733,0.62228 0.176733,1.04128 v 6.10815 h 3.162598 v -6.36343 c 0,-0.91657 -0.144467,-1.69573 -0.432532,-2.33733 -0.27497,-0.6416 -0.687184,-1.11977 -1.237134,-1.43402 -0.549939,-0.32735 -1.237497,-0.49093 -2.062406,-0.49093 -0.32735,0 -0.667592,0.0459 -1.021127,0.13746 -0.353534,0.0917 -0.694296,0.22907 -1.021643,0.41238 -0.327346,0.17022 -0.628333,0.38666 -0.903304,0.64854 -0.203065,0.19291 -0.378112,0.40593 -0.526066,0.63821 -0.150088,-0.33174 -0.327552,-0.61108 -0.534334,-0.8351 -0.314253,-0.35353 -1.361897,-1.10789 -2.240173,-1.24695 -0.322528,-0.0602 -0.427472,-0.1073 -0.753928,-0.13238 z m -6.692098,11.00355 h 3.162081 v -3.28713 h -3.135726 z"
         sodipodi:nodetypes="ccssccssccscssccsccscccccsccccccc" /></g></g></svg>
